<?xml version="1.0" encoding="UTF-8"?>
<svg width="180px" height="180px" viewBox="0 0 180 180" version="1.1" xmlns="http://www.w3.org/2000/svg" xmlns:xlink="http://www.w3.org/1999/xlink">
    <!-- Generator: Sketch 53.2 (72643) - https://sketchapp.com -->
    <title>资源库1</title>
    <desc>Created with Sketch.</desc>
    <defs>
        <linearGradient x1="50%" y1="0%" x2="50%" y2="100%" id="linearGradient-1">
            <stop stop-color="#F4F6F9" offset="0%"></stop>
            <stop stop-color="#DBE2EB" offset="100%"></stop>
        </linearGradient>
        <linearGradient x1="50%" y1="0%" x2="50%" y2="100%" id="linearGradient-2">
            <stop stop-color="#F0F3F7" offset="0%"></stop>
            <stop stop-color="#DCE3EC" offset="100%"></stop>
        </linearGradient>
    </defs>
    <g id="临时任务" stroke="none" stroke-width="1" fill="none" fill-rule="evenodd">
        <g id="资源库1" transform="translate(-1135.000000, -300.000000)">
            <g id="分组-3" transform="translate(1135.000000, 300.000000)">
                <g id="分组-7" transform="translate(17.000000, 19.000000)">
                    <g id="icons8-purchase_order" fill-rule="nonzero">
                        <path d="M117.6,114.214737 C117.6,131.52 103.764706,131.52 103.764706,131.52 L10.3764706,131.52 L10.3764706,0 L117.6,0 C117.6,0 117.6,96.9094737 117.6,114.214737 Z" id="路径" fill="url(#linearGradient-1)"></path>
                        <g id="分组" transform="translate(24.211765, 24.227368)" fill="#DCE3EC">
                            <rect id="矩形" x="0" y="0" width="10.3764706" height="10.3831579"></rect>
                            <rect id="矩形" x="20.7529412" y="0" width="58.8" height="10.3831579"></rect>
                            <rect id="矩形" x="0" y="20.7663158" width="10.3764706" height="10.3831579"></rect>
                            <rect id="矩形" x="20.7529412" y="20.7663158" width="58.8" height="10.3831579"></rect>
                            <rect id="矩形" x="0" y="41.5326316" width="10.3764706" height="10.3831579"></rect>
                            <rect id="矩形" x="20.7529412" y="41.5326316" width="58.8" height="10.3831579"></rect>
                        </g>
                        <path d="M89.9294118,114.214737 C89.9294118,111.747006 89.9294118,101.086964 89.9294118,96.9094737 L34.5882353,96.9094737 L13.8352941,96.9094737 L0,96.9094737 C0,101.086964 0,111.747006 0,114.214737 C0,123.774164 4.28202353,131.52 13.8352941,131.52 L103.764706,131.52 C94.2114353,131.52 89.9294118,123.774164 89.9294118,114.214737 Z" id="路径" fill="url(#linearGradient-2)"></path>
                    </g>
                    <ellipse id="椭圆形" fill="#CED7E2" transform="translate(122.720000, 138.720000) scale(-1, 1) translate(-122.720000, -138.720000) " cx="122.72" cy="138.72" rx="17.52" ry="3.84"></ellipse>
                    <g id="Humaaan" transform="translate(124.520000, 109.200000) scale(-1, 1) translate(-124.520000, -109.200000) translate(103.520000, 79.200000)">
                        <g id="Head/Front/Airy" transform="translate(11.393797, 0.000000)">
                            <g id="Head" stroke-width="1" transform="translate(7.500849, 4.494264)" fill="#B28B67">
                                <path d="M1.14766798,5.00024997 C0.507608074,4.21610944 0.0744021451,3.2551344 0.14679111,2.17833428 C0.355363875,-0.924226712 4.49336021,-0.241702824 5.29828616,1.32420354 C6.10321212,2.8901099 6.00756599,6.86216124 4.96727091,7.14203238 C4.55240278,7.25364458 3.66861045,6.9802395 2.76911592,6.41437498 L3.33371077,10.5832678 L0,10.5832678 L1.14766798,5.00024997 Z"></path>
                            </g>
                            <path d="M10.8990048,4.01370529 C10.4596314,3.93850335 9.27659904,3.88679994 9.05842675,3.88683331 C8.91900435,3.88683331 8.76791295,3.92007838 8.68533714,3.78646393 C8.61771425,3.67704895 8.64248699,3.49199811 8.62230534,3.365026 C8.59887166,3.21752606 8.56558628,3.0719287 8.53191831,2.9266985 C8.43611124,2.51343832 8.29123693,2.12027204 8.08852768,1.75113834 C7.70816885,1.05859959 7.15095751,0.516130935 6.44750092,0.200469717 C5.67068257,-0.1480694 4.79164877,-0.227877582 3.95607089,-0.157181752 C3.06189288,-0.0815458933 2.25245868,0.226538387 1.40820874,0.516464721 C0.603684463,0.792739215 -0.238971348,0.901486624 -1.08041562,0.76657041 C-1.92820452,0.630652838 -2.56878873,0.151069421 -3.28388246,-0.304114255 C-4.0159377,-0.770112591 -4.85253582,-1.07489239 -5.71795578,-1.00483076 C-6.52579584,-0.939408741 -7.27034905,-0.591270167 -7.93835224,-0.126206431 C-8.56334588,0.308916719 -9.07904614,0.832426345 -9.37019759,1.56922509 C-9.68341177,2.36179944 -9.68312482,3.23177871 -9.16806222,3.93222818 C-8.42150042,4.94753778 -7.03553406,5.21009368 -5.88246974,5.18399163 C-5.21551866,5.1689379 -4.56049166,5.04186565 -3.93081129,4.81071899 C-3.09105679,4.50243444 -2.36537806,3.97992617 -1.57976013,3.55598484 C-1.21107031,3.35704851 -0.829978187,3.19366037 -0.430521711,3.0759675 C-0.0428936618,2.96171263 0.338899881,2.90930826 0.689862997,3.15370621 C1.0611353,3.41225668 1.39382971,3.66623429 1.81856905,3.82808702 C2.22602805,3.98336416 2.65762213,4.07021522 3.09173494,4.06671047 C3.93636747,4.05990124 4.76898028,3.78522892 5.58931831,3.6012462 C6.25827798,3.45124286 6.97404124,3.30174021 7.65604088,3.44593567 C7.94062453,3.50611725 8.35630922,3.63035232 8.45909856,3.93903741 C6.72911949,4.266281 6.04967204,6.4993079 6.53737942,8.13856328 C6.80060176,9.02332926 8.38286738,10.0576113 8.99807308,9.5924765 C9.38782359,9.2978002 9.15120497,8.91094358 8.99807308,8.65556408 C8.70481738,8.16650115 8.60448299,7.53828292 9.147124,7.19778804 C9.61519173,6.9041233 10.1073327,7.60149911 10.1166424,7.60073141 C10.2452885,7.5901504 11.3569025,6.93400421 12.1227843,5.97652051 C12.8783296,6.02326616 12.9929567,5.50330281 12.8125473,5.07807051 C12.6321379,4.65283821 11.5060804,4.11767956 10.8990048,4.01370529 Z" id="hair" fill="#191847"></path>
                        </g>
                        <g id="分组-2" transform="translate(24.478943, 22.663161) rotate(27.000000) translate(-24.478943, -22.663161) translate(14.398943, 14.503161)">
                            <path d="M11.0708151,10.336925 L16.1885995,12.3292495 C17.4323844,12.3312096 18.5057788,12.4606788 19.4087827,12.7176569 C19.6374772,12.8357931 19.9505022,13.1152628 19.1723712,13.2609673 C18.3942402,13.4066719 17.5823074,13.5949021 17.5467369,13.8829545 C17.5111663,14.1710068 18.0558193,14.3581484 17.9371121,14.7657541 C17.857974,15.0374911 17.0311402,14.6308407 15.4566108,13.5458026 L10.7511407,12.925669 L11.0708151,10.336925 Z" id="Arm" fill="#B28B67" transform="translate(15.209908, 12.592157) rotate(15.000000) translate(-15.209908, -12.592157) "></path>
                            <path d="M3.3125972,1.92 C6.80442531,5.6355094 11.0636672,8.05968136 16.8728105,10.2095356 L15.5822185,12.7878866 C9.58821582,12.2241804 6.3837414,11.7736809 3.87222595,8.05226061 C3.24188649,7.11825956 2.11508427,3.90434698 1.44,2.2353737 L3.3125972,1.92 Z" id="Coat-Back" fill="#2E3478" transform="translate(9.156405, 7.353943) rotate(15.000000) translate(-9.156405, -7.353943) "></path>
                        </g>
                        <g id="Bottom/Standing/Shorts" transform="translate(0.000000, 26.117177)">
                            <polygon id="Leg" fill="#997659" points="17.9275453 9.9475983e-14 23.1980808 17.0224927 25.7512596 31.4990262 27.7531282 31.4990262 25.0552815 9.9475983e-14"></polygon>
                            <path d="M16.0420335,0 C16.4000211,9.34626341 15.9787181,14.1672353 15.8985962,15.016384 C15.8184743,15.8655327 14.7213433,21.3714581 12.1240189,31.7840853 L14.2571594,31.060319 C18.3619884,21.5103989 19.7607678,16.5471367 20.2315606,15.2931181 C20.7023535,14.0390995 21.9527558,8.94139348 23.9827677,0 L16.0420335,0 Z" id="Leg" fill="#B28B67"></path>
                            <g id="Accessories/Shoe/Flat-Sneaker" transform="translate(11.764952, 27.535045)" fill="#E4E4E4">
                                <path d="M0.146633143,4.77598376 C0.146633143,4.77598376 0.146633143,4.77598376 0.146633143,4.77598376 C0.146633143,5.04423748 0.190683822,5.43568637 0.27878518,5.95033043 C0.585532705,5.95033043 3.34232437,5.95033043 8.54916016,5.95033043 C8.76407789,5.22952336 8.64001492,4.84038282 8.17697124,4.7829088 C7.71392755,4.72543478 7.3292693,4.67354035 7.02299648,4.6272255 L3.58134169,3.0706823 C3.29438965,2.94090367 2.9565627,3.06831789 2.82678407,3.35526993 C2.8237476,3.36198382 2.82084156,3.36875595 2.81806757,3.37558248 L2.73664559,3.57595447 C2.30798825,3.77885436 1.95965966,3.8803043 1.69165981,3.8803043 C1.59938082,3.8803043 1.49220152,3.86428112 1.37012191,3.83223476 L1.37012894,3.83220799 C0.848895979,3.69538235 0.315434082,4.00700606 0.178608446,4.52823903 C0.157379619,4.60910957 0.146633143,4.6923733 0.146633143,4.77598376 Z" id="shoe"></path>
                            </g>
                            <g id="Accessories/Shoe/Flat-Sneaker" transform="translate(24.930493, 27.535045)" fill="#E4E4E4">
                                <path d="M0.146633143,4.77598376 C0.146633143,4.77598376 0.146633143,4.77598376 0.146633143,4.77598376 C0.146633143,5.04423748 0.190683822,5.43568637 0.27878518,5.95033043 C0.585532705,5.95033043 3.34232437,5.95033043 8.54916016,5.95033043 C8.76407789,5.22952336 8.64001492,4.84038282 8.17697124,4.7829088 C7.71392755,4.72543478 7.3292693,4.67354035 7.02299648,4.6272255 L3.58134169,3.0706823 C3.29438965,2.94090367 2.9565627,3.06831789 2.82678407,3.35526993 C2.8237476,3.36198382 2.82084156,3.36875595 2.81806757,3.37558248 L2.73664559,3.57595447 C2.30798825,3.77885436 1.95965966,3.8803043 1.69165981,3.8803043 C1.59938082,3.8803043 1.49220152,3.86428112 1.37012191,3.83223476 L1.37012894,3.83220799 C0.848895979,3.69538235 0.315434082,4.00700606 0.178608446,4.52823903 C0.157379619,4.60910957 0.146633143,4.6923733 0.146633143,4.77598376 Z" id="shoe"></path>
                            </g>
                            <polygon id="Bottom" fill="#69A1AC" points="17.2272505 0 19.4681937 8.67278085 26.312919 8.67278085 25.2923425 0"></polygon>
                            <path d="M15.96672,-3.55271368e-15 C15.2293712,2.18350775 15.0893122,5.0744347 15.5465432,8.67278085 L22.5313274,8.67278085 L24.4519889,-3.55271368e-15 L15.96672,-3.55271368e-15 Z" id="Bottom" fill="#89C5CC"></path>
                        </g>
                        <g id="Body/Long-Sleeve-1" transform="translate(13.920000, 8.160000)">
                            <path d="M15.5357387,3.68468856 L20.7971021,2.10642197 C21.7786137,1.34291672 22.7044044,0.784677515 23.5744742,0.431704369 C23.8275209,0.38410962 24.2464516,0.411751499 23.7229453,1.00517306 C23.1994389,1.59859463 22.6754967,2.24631188 22.8249666,2.4951361 C22.9744364,2.74396032 23.5190325,2.55638674 23.6766489,2.95053935 C23.7817266,3.21330775 22.8794594,3.40150798 20.9698474,3.51514005 L16.8790334,5.92088687 L15.5357387,3.68468856 Z" id="Skin" fill="#B28B67"></path>
                            <path d="M1.45275789,19.1726011 L12.1410063,19.1726011 C9.71993909,11.7941336 8.48316603,6.73001227 8.43068715,3.980237 C8.42801172,3.8400508 8.16891708,3.59302291 8.05428794,3.62537341 C7.21601738,3.86194914 6.31900173,3.77349133 5.36324099,3.36 C2.82938832,7.43221733 1.95313814,12.4459414 1.45275789,19.1726011 Z" id="Shirt" fill="#F2F2F2"></path>
                            <path d="M6.27530975,3.36657407 C9.33905251,3.39164327 14.3097491,3.95070556 20.042353,2.11163676 L20.60832,4.93758165 C16.2756719,7.72209029 11.8885028,9.87910065 8.04424938,9.57279233 C9.71358636,16.7281796 9.63662224,22.5856215 5.95118795,22.5856215 C4.1912099,22.5856215 2.29155441,22.5856215 0.252221467,22.5856215 C-0.652905965,16.5071995 1.72594605,8.07931451 3.93131483,3.82835735 C4.01553122,3.6660261 4.19483637,3.36 4.61717355,3.36 C4.98516278,3.36 5.53714662,3.36 6.27312508,3.36 C6.27385341,3.36219136 6.27458163,3.36438272 6.27530975,3.36657407 Z" id="Coat-Front" fill="#2E3478"></path>
                        </g>
                    </g>
                </g>
            </g>
        </g>
    </g>
</svg>