<?xml version="1.0" encoding="UTF-8"?>
<svg width="16px" height="16px" viewBox="0 0 16 16" version="1.1" xmlns="http://www.w3.org/2000/svg" xmlns:xlink="http://www.w3.org/1999/xlink">
    <!-- Generator: Sketch 47 (45396) - http://www.bohemiancoding.com/sketch -->
    <title>ic_mouse</title>
    <desc>Created with Sketch.</desc>
    <defs></defs>
    <g id="画板" stroke="none" stroke-width="1" fill="none" fill-rule="evenodd">
        <g id="Artboard-2" transform="translate(-202.000000, -36.000000)">
            <g id="Group-3" transform="translate(202.000000, 36.000000)">
                <g id="ic/mouse/grey600" transform="translate(0.500000, 0.000000)">
                    <g id="ic_mouse_24px">
                        <polygon id="Shape" points="0 0 15 0 15 16 0 16"></polygon>
                        <path d="M8.125,0.713333333 L8.125,6 L12.5,6 C12.5,3.28 10.59375,1.04 8.125,0.713333333 Z M2.5,10 C2.5,12.9466667 4.7375,15.3333333 7.5,15.3333333 C10.2625,15.3333333 12.5,12.9466667 12.5,10 L12.5,7.33333333 L2.5,7.33333333 L2.5,10 Z M6.875,0.713333333 C4.40625,1.04 2.5,3.28 2.5,6 L6.875,6 L6.875,0.713333333 Z" id="Shape" fill="#8C9097" fill-rule="nonzero"></path>
                    </g>
                </g>
                <rect id="Rectangle-2" stroke="#FFFFFF" fill="#FFA900" x="6.5" y="2" width="3" height="7" rx="1.5"></rect>
            </g>
        </g>
    </g>
</svg>