<?xml version="1.0" encoding="UTF-8"?>
<svg width="24px" height="24px" viewBox="0 0 24 24" version="1.1" xmlns="http://www.w3.org/2000/svg" xmlns:xlink="http://www.w3.org/1999/xlink">
    <title>2</title>
    <g id="ðŸŽ©é¡¹ç›®é¡µé¢" stroke="none" stroke-width="1" fill="none" fill-rule="evenodd">
        <g id="è¿žæŽ¥æˆåŠŸ" transform="translate(-665.000000, -78.000000)">
            <g id="noti/textonly-copyå¤‡ä»½-4" transform="translate(567.000000, 70.000000)">
                <g id="ç¼–ç»„-7å¤‡ä»½-2" transform="translate(98.000000, 8.000000)">
                    <rect id="1" fill="#D8D8D8" opacity="0" x="0" y="0" width="24" height="24"></rect>
                    <path d="M11.8010184,6 C8.9224902,6 6.32978662,7.09042263 4.25913965,8.98781136 C3.74328301,9.46012659 4.15016774,10.0332276 4.18964,10.080345 C4.48530956,10.4332807 5.14531194,10.4762729 5.58816244,10.1042005 C7.32426474,8.64300365 9.47123972,7.77239825 11.8010184,7.77239825 C14.1307971,7.77239825 16.2777724,8.64390673 18.0138747,10.1042005 C18.4575275,10.477176 18.901485,10.5803443 19.3927684,10.1474531 C19.6077766,9.95799998 19.8235086,9.46012659 19.3084542,8.98781136 C17.2378073,7.09132571 14.6795466,6 11.8010184,6 Z M11.8010184,10.3532275 C10.109843,10.3532275 8.53174933,10.896633 7.18955933,11.8313295 C6.52849265,12.2910015 6.76419445,12.8805311 6.96862298,13.1697621 C7.29020326,13.6247425 7.98210976,13.6784835 8.46346908,13.346147 C9.43661692,12.6751523 10.578366,12.2878403 11.8010184,12.2878403 C13.0284845,12.2878403 14.1755483,12.6794564 15.151103,13.3549665 C15.6244396,13.6827876 16.2309025,13.6228587 16.6240125,13.1803454 L16.6459488,13.1556522 C16.8709144,12.8353498 17.0826821,12.298833 16.4328479,11.8436765 C15.0858435,10.9017553 13.5002165,10.3532275 11.8010184,10.3532275 Z M11.8010184,14.0940171 C11.074166,14.0940171 10.3864617,14.2777107 9.76871724,14.6055318 C9.26489458,14.8719428 9.1491678,15.6243428 9.5430801,16.0677592 L10.9721154,17.6763854 C11.4302089,18.1920489 12.1718279,18.1920489 12.6299214,17.6763854 L14.0589567,16.0677592 C14.452869,15.6243428 14.3371422,14.8719428 13.8333195,14.6055318 C13.2155752,14.2777107 12.5278709,14.0940171 11.8010184,14.0940171 Z" id="å½¢çŠ¶" fill="#68C23A" fill-rule="nonzero"></path>
                </g>
            </g>
        </g>
    </g>
</svg>