<?xml version="1.0" encoding="UTF-8"?>
<svg width="24px" height="24px" viewBox="0 0 24 24" version="1.1" xmlns="http://www.w3.org/2000/svg" xmlns:xlink="http://www.w3.org/1999/xlink">
    <title>1</title>
    <g id="ðŸŽ©é¡¹ç›®é¡µé¢" stroke="none" stroke-width="1" fill="none" fill-rule="evenodd">
        <g id="ç½‘ç»œæ–­å¼€" transform="translate(-583.000000, -78.000000)">
            <g id="noti/textonly-copyå¤‡ä»½-2" transform="translate(567.000000, 70.000000)">
                <g id="ç¼–ç»„-7å¤‡ä»½" transform="translate(16.000000, 8.000000)">
                    <rect id="1" fill="#D8D8D8" opacity="0" x="0" y="0" width="24" height="24"></rect>
                    <g id="ç¼–ç»„-18" transform="translate(4.000000, 4.000000)" fill="#F56C6C">
                        <path d="M7.423983,10.8748916 L9.104,13.9052805 L8.62992142,14.4406659 C8.20236746,14.9219519 7.52783136,14.9540376 7.06734644,14.5369231 L6.97211541,14.4406659 L5.5430801,12.8320397 C5.1491678,12.3886233 5.26489458,11.6362233 5.76871724,11.3698123 C6.27858776,11.0992371 6.83611796,10.9268478 7.423983,10.8748916 Z M10.1060747,7.46412194 C10.9363832,7.71922304 11.7181993,8.10822388 12.4328479,8.60795699 C13.0826821,9.06311355 12.8709144,9.59963034 12.6459488,9.91993273 L12.6459488,9.91993273 L12.6240125,9.94462588 C12.3703528,10.2301637 12.0278604,10.3564067 11.6896222,10.3219669 Z M5.52768008,7.45466213 L6.49698484,9.20230776 C5.76620779,9.37317179 5.08090296,9.68470096 4.46346908,10.1104275 C3.98210976,10.442764 3.29020326,10.389023 2.96862298,9.93404259 C2.76419445,9.64481162 2.52849265,9.05528197 3.18955933,8.59560997 C3.90767372,8.09551758 4.69331768,7.7074358 5.52768008,7.45466213 Z M7.80101842,2.76428051 C10.6795466,2.76428051 13.2378073,3.85560622 15.3084542,5.75209187 C15.8235086,6.2244071 15.6077766,6.72228049 15.3927684,6.91173362 C14.901485,7.34462477 14.4575275,7.24145652 14.0138747,6.86848101 C12.4521441,5.5548571 10.5579306,4.71768455 8.49725413,4.5627674 L7.502,2.76828051 Z M3.43039995,3.67120303 L4.29226947,5.22555908 C3.31557546,5.62252605 2.4062518,6.1799331 1.58816244,6.86848101 C1.14531194,7.24055343 0.485309557,7.19756125 0.189640002,6.84462546 C0.150167736,6.79750808 -0.256716994,6.2244071 0.259139652,5.75209187 C1.21311629,4.87793777 2.27790344,4.17506841 3.43039995,3.67120303 Z" id="å½¢çŠ¶ç»“åˆ" fill-rule="nonzero"></path>
                        <path d="M8.1143518,0 C8.66663655,-1.01453063e-16 9.1143518,0.44771525 9.1143518,1 L9.1143518,15 C9.1143518,15.5522847 8.66663655,16 8.1143518,16 C7.56206705,16 7.1143518,15.5522847 7.1143518,15 L7.1143518,1 C7.1143518,0.44771525 7.56206705,1.01453063e-16 8.1143518,0 Z" id="çŸ©å½¢" transform="translate(8.114352, 8.000000) rotate(-29.000000) translate(-8.114352, -8.000000) "></path>
                    </g>
                </g>
            </g>
        </g>
    </g>
</svg>