<?xml version="1.0" encoding="UTF-8"?>
<svg width="136px" height="72px" viewBox="0 0 136 72" version="1.1" xmlns="http://www.w3.org/2000/svg" xmlns:xlink="http://www.w3.org/1999/xlink">
    <!-- Generator: Sketch 50.2 (55047) - http://www.bohemiancoding.com/sketch -->
    <title>Group 4</title>
    <desc>Created with Sketch.</desc>
    <defs></defs>
    <g id="2.0详情页" stroke="none" stroke-width="1" fill="none" fill-rule="evenodd">
        <g id="分享引导" transform="translate(-306.000000, -538.000000)">
            <g id="Group-8" transform="translate(64.000000, 449.000000)">
                <g id="Rectangle">
                    <g id="Group-6">
                        <g>
                            <g id="Page-1-Copy-2-+-Group-3-+-Page-1-Copy-2-Mask" transform="translate(10.000000, 0.000000)">
                                <g id="Group-4" transform="translate(221.000000, 86.000000)">
                                    <g id="Page-1-Copy-2" transform="translate(38.288242, 57.367936) rotate(-9.000000) translate(-38.288242, -57.367936) translate(5.288242, 21.867936)">
                                        <path d="M50.0962535,12.9289552 C54.397799,17.7692339 57.0517668,24.4105795 57.0517668,31.7382961 C57.0517668,32.1567326 57.0502419,32.1708316 57.0329591,32.5847363 C57.0416005,50.5306767 60.39751,55.4139464 64.2058217,59.6466505 C66.9126103,62.6552643 64.6445574,68.9062034 58.9584643,66.1548234 C47.2133091,60.4715917 44.8842609,70.3158043 32.6975959,70.6673833 C20.5109309,71.0189623 17.8558511,60.4715917 6.46455691,66.1548234 C0.81319798,68.9743434 -1.49009745,62.6552643 1.21719945,59.6466505 C4.99348721,55.4496973 8.55119863,50.6439718 8.62388797,33.0711498 C8.59237231,32.5102133 8.62337965,32.3077927 8.62337965,31.7382961 C8.62337965,24.5892242 11.149521,18.0934648 15.2672391,13.2861585 C14.8517395,12.8090902 14.4155049,12.1894146 13.9846746,11.473076 C13.942162,11.4045242 13.9047105,11.3359724 13.867765,11.2674205 C13.4785723,10.613426 13.0944407,9.88587587 12.7371325,9.11129017 C12.3853914,8.34671204 12.0655347,7.55061007 11.7932517,6.76001226 C11.7613672,6.65993659 11.7239157,6.55986091 11.6975984,6.45978524 C11.5321029,5.94839856 11.3883698,5.43701188 11.2709541,4.94664108 C10.7268941,2.62188323 10.8286207,0.6293766 12.1824444,0.0649498108 C12.9507076,-0.256293096 13.8783931,0.650392491 14.9553788,1.98390082 C14.9928304,2.03143676 15.035343,2.07897271 15.0778556,2.13151243 C15.1259353,2.18955632 15.174015,2.24760021 15.2220947,2.31064789 C15.9255769,3.20682553 16.7039623,4.25611895 17.5516836,5.22585221 C17.6159586,5.29990821 17.6797275,5.37346382 17.7440025,5.44751982 C17.780948,5.4895516 17.8183995,5.53158339 17.8558511,5.57411555 C18.880406,6.71042109 20.0032074,7.70783631 21.2242553,8.20179923 C24.6720337,6.11091206 28.6294282,4.9221063 32.8375732,4.9221063 C36.9406946,4.9221063 40.8054254,6.05231395 44.191802,8.04694112 C45.2793605,7.51620059 46.2865296,6.60198109 47.2133091,5.57411555 C47.2507607,5.53158339 47.2882123,5.4895516 47.3251577,5.44751982 C47.3894327,5.37346382 47.4532016,5.29990821 47.5174766,5.22585221 C48.3651979,4.25611895 49.1435833,3.20682553 49.8470655,2.31064789 C49.8951452,2.24760021 49.9432249,2.18955632 49.9913046,2.13151243 C50.0338172,2.07897271 50.0763298,2.03143676 50.1137814,1.98390082 C51.1907671,0.650392491 52.1184526,-0.256293096 52.8867159,0.0649498108 C54.2405395,0.6293766 54.3422661,2.62188323 53.7982061,4.94664108 C53.6807904,5.43701188 53.5370573,5.94839856 53.3715619,6.45978524 C53.3452445,6.55986091 53.307793,6.65993659 53.2759085,6.76001226 C53.0036255,7.55061007 52.6837688,8.34671204 52.3320277,9.11129017 C51.9747195,9.88587587 51.5905879,10.613426 51.2013952,11.2674205 C51.1644497,11.3359724 51.1269982,11.4045242 51.0844856,11.473076 C50.7543274,12.0220277 50.4209955,12.514213 50.0962535,12.9289552 Z M37.473532,48.5738744 C37.5497918,48.1727012 37.2136468,47.8147469 36.7897026,47.8147469 C36.7897026,47.8147469 34.1752326,48.517905 32.8882168,48.517905 C31.601201,48.517905 28.6690403,47.8147469 28.6690403,47.8147469 C28.2175021,47.8147469 27.8648007,48.1996495 27.9500912,48.6186187 C28.3720285,50.6793982 30.3412365,52.3852742 32.7072962,52.3852742 C35.0934244,52.3852742 37.0761785,50.6499077 37.473532,48.5738744 Z" id="Combined-Shape" fill="#8FB8ED"></path>
                                        <path d="M48.8018702,29.8842168 C48.8018702,38.6220622 41.6773167,45.7052728 32.8884709,45.7052728 C24.099625,45.7052728 16.9745635,38.6220622 16.9745635,29.8842168 C16.9745635,21.1463715 24.099625,14.0631609 32.8884709,14.0631609 C41.6773167,14.0631609 48.8018702,21.1463715 48.8018702,29.8842168" id="Fill-16"></path>
                                        <path d="M47.0336865,30.0572228 C47.0336865,37.9215548 40.6245587,44.2989567 32.7141983,44.2989567 C28.5093218,44.2989567 24.7340961,42.4967245 22.1113934,39.6331946 C19.7997295,37.100656 18.3891105,33.7416515 18.3891105,30.0572228 C18.3891105,22.1928907 24.803838,15.821056 32.7141983,15.821056 C37.884262,15.821056 42.4108676,18.5403465 44.9205578,22.6190293 C44.9261575,22.6245965 44.9312482,22.6296575 44.9312482,22.6352246 C46.2665256,24.7998265 47.0336865,27.3379322 47.0336865,30.0572228" id="Fill-18" fill="#FFFFFF"></path>
                                        <path d="M37.1014422,25.7843387 C37.1014422,29.7649782 33.8559395,32.9917087 29.8521418,32.9917087 C25.8483441,32.9917087 22.6023359,29.7649782 22.6023359,25.7843387 C22.6023359,21.8036993 25.8483441,18.5769688 29.8521418,18.5769688 C33.8559395,18.5769688 37.1014422,21.8036993 37.1014422,25.7843387" id="Fill-20" fill="#3C485D"></path>
                                    </g>
                                    <g id="Group-3" transform="translate(97.000000, 14.000000)">
                                        <path d="M47.0362019,14.9302567 C51.2014165,19.637742 53.8217598,26.4714118 53.8217598,34.0760547 C53.8217598,34.4772627 53.8204746,34.4907811 53.8059087,34.8876438 C53.8131917,52.0946843 56.6415366,56.7768919 59.8511641,60.8353202 C62.1324329,63.7200583 60.2209285,69.7136234 55.4287156,67.0755278 C45.5299534,61.6262955 43.5670424,71.0651859 33.2961778,71.4022891 C23.0253132,71.7393923 20.7876242,61.6262955 11.1870944,67.0755278 C6.42415537,69.7789579 4.48294868,63.7200583 6.76464593,60.8353202 C9.94728371,56.8111708 12.9457063,52.2033146 13.0069686,35.3540299 C12.9804073,34.8161892 13.0065402,34.6221031 13.0065402,34.0760547 C13.0065402,26.5166769 15.5957822,19.7191214 19.7178847,15.0145435 C19.5654616,15.0958006 19.4783057,15.1412907 19.4783057,15.1412907 C19.4654169,15.1288317 19.4529308,15.1159708 19.440042,15.0990909 C19.1049327,14.7136658 18.752504,14.2096793 18.4045058,13.6257141 C18.3706727,13.5706533 18.3408673,13.5155926 18.3114647,13.4605319 C18.0017302,12.9352445 17.6960235,12.3508774 17.4116639,11.7287314 C17.1317348,11.1146234 16.8771806,10.4751956 16.6604873,9.84018864 C16.6351124,9.75980802 16.605307,9.6794274 16.5843627,9.59904677 C16.4526551,9.18830179 16.3382668,8.77755681 16.2448228,8.38369176 C15.811839,6.5164499 15.8927969,4.9160717 16.9702218,4.46272499 C17.5816352,4.20470319 18.319923,4.93295163 19.1770295,6.00402343 C19.2068349,6.04220422 19.2406681,6.08038502 19.2745012,6.12258485 C19.3127649,6.16920561 19.3510286,6.21582637 19.3892923,6.26646616 C19.9491504,6.98627464 20.5686194,7.82906546 21.2432686,8.6079537 C21.2944211,8.66743536 21.3451708,8.72651512 21.3963233,8.78599678 C21.425726,8.81975664 21.4555314,8.8535165 21.4853367,8.88767826 C22.3420151,9.8465834 23.2850028,10.6823454 24.3142996,11.0553647 C27.0539452,9.33293394 30.1442254,8.36398546 33.41415,8.36398546 C36.6063069,8.36398546 39.6272627,9.28739355 42.3179391,10.9337539 C43.2320115,10.5186675 44.0757416,9.75335386 44.8491294,8.88767826 C44.8789348,8.8535165 44.9087402,8.81975664 44.9381428,8.78599678 C44.9892953,8.72651512 45.0400451,8.66743536 45.0911976,8.6079537 C45.7658468,7.82906546 46.3853157,6.98627464 46.9451739,6.26646616 C46.9834375,6.21582637 47.0217012,6.16920561 47.0599649,6.12258485 C47.0937981,6.08038502 47.1276312,6.04220422 47.1574366,6.00402343 C48.0145432,4.93295163 48.752831,4.20470319 49.3642444,4.46272499 C50.4416692,4.9160717 50.5226271,6.5164499 50.0896433,8.38369176 C49.9961994,8.77755681 49.8818111,9.18830179 49.7501035,9.59904677 C49.7291591,9.6794274 49.6993537,9.75980802 49.6739789,9.84018864 C49.4572856,10.4751956 49.2027314,11.1146234 48.9228023,11.7287314 C48.6384427,12.3508774 48.332736,12.9352445 48.0230015,13.4605319 C47.9935989,13.5155926 47.9637935,13.5706533 47.9299603,13.6257141 C47.6307069,14.1278822 47.3281772,14.5709079 47.0362019,14.9302567 Z M35.6085017,44.8522751 C35.6644293,43.6135637 34.3289438,42.8152871 33.3046872,42.8152871 C32.2804306,42.8152871 30.9092477,43.4715722 30.8089652,44.6508073 C30.7086827,45.8300424 31.421686,46.4863274 33.3046872,46.4863274 C34.7790822,46.4863274 35.5525741,46.0909864 35.6085017,44.8522751 Z" id="Combined-Shape" fill="#7BB4FF" transform="translate(33.310349, 37.910557) rotate(-9.000000) translate(-33.310349, -37.910557) "></path>
                                        <path d="M47.450523,21.0791243 C47.450523,29.8169697 40.3259696,36.9001803 31.5371237,36.9001803 C22.7482779,36.9001803 15.6232164,29.8169697 15.6232164,21.0791243 C15.6232164,12.341279 22.7482779,5.25806835 31.5371237,5.25806835 C40.3259696,5.25806835 47.450523,12.341279 47.450523,21.0791243" id="Fill-16" transform="translate(31.536870, 21.079124) rotate(-9.000000) translate(-31.536870, -21.079124) "></path>
                                        <path d="M42.4895162,29.5877594 C42.4895162,35.813689 37.4156233,40.8624655 31.1532547,40.8624655 C27.8243941,40.8624655 24.8356738,39.4356983 22.7593675,37.1687371 C20.9293002,35.1638107 19.8125602,32.5045988 19.8125602,29.5877594 C19.8125602,23.3618299 24.8908861,18.3174607 31.1532547,18.3174607 C35.2462218,18.3174607 38.8297846,20.4702324 40.8166227,23.6991896 C40.8210558,23.7035969 40.8250859,23.7076036 40.8250859,23.7120109 C41.8821805,25.425654 42.4895162,27.4349877 42.4895162,29.5877594" id="Fill-18" fill="#FFFFFF" transform="translate(31.151038, 29.589963) rotate(-9.000000) translate(-31.151038, -29.589963) "></path>
                                        <path d="M33.5567028,26.0421153 C33.5567028,29.1934549 30.9873465,31.7479498 27.8176733,31.7479498 C24.6480001,31.7479498 22.0782436,29.1934549 22.0782436,26.0421153 C22.0782436,22.8907757 24.6480001,20.3362808 27.8176733,20.3362808 C30.9873465,20.3362808 33.5567028,22.8907757 33.5567028,26.0421153" id="Fill-20" fill="#3C485D" transform="translate(27.817473, 26.042115) rotate(-9.000000) translate(-27.817473, -26.042115) "></path>
                                    </g>
                                    <g id="Page-1-Copy-2" transform="translate(85.625992, 49.440278) rotate(-9.000000) translate(-85.625992, -49.440278) translate(52.125992, 5.440278)">
                                        <path d="M50.7833846,16.8208344 C55.08493,22.752979 57.7388979,30.8924736 57.7388979,39.8731702 C57.7388979,40.3859972 57.7373729,40.4032766 57.7200901,40.9105495 C57.7287315,62.9047197 61.0846411,68.8895531 64.8929528,74.077067 C67.5997414,77.7643612 65.3316885,85.4253818 59.6455953,82.0533478 C47.9004402,75.0880977 45.571392,87.1529592 33.384727,87.5838471 C21.198062,88.014735 18.5429822,75.0880977 7.15168798,82.0533478 C1.50032905,85.5088928 -0.80296638,77.7643612 1.90433052,74.077067 C5.68061828,68.9333687 9.2383297,63.0435718 9.31101904,41.5066878 C9.27950338,40.8192157 9.31051072,40.5711333 9.31051072,39.8731702 C9.31051072,31.1114168 11.8366521,23.1503495 15.9543701,17.2586153 C15.5388706,16.6739303 15.102636,15.9144688 14.6718057,15.0365393 C14.6292931,14.9525236 14.5918415,14.8685079 14.5548961,14.7844922 C14.1657034,13.9829701 13.7815718,13.0912999 13.4242635,12.1419838 C13.0725224,11.2049328 12.7526658,10.2292468 12.4803828,9.26030665 C12.4484983,9.13765599 12.4110467,9.01500534 12.3847294,8.89235468 C12.219234,8.26560984 12.0755009,7.63886499 11.9580852,7.03787678 C11.4140252,4.18870206 11.5157518,1.74672751 12.8695754,1.05497781 C13.6378387,0.661269211 14.5655242,1.77248415 15.6425099,3.40680413 C15.6799615,3.46506319 15.7224741,3.52332225 15.7649867,3.58771384 C15.8130664,3.65885122 15.8611461,3.7299886 15.9092258,3.80725852 C16.612708,4.90559514 17.3910933,6.19158726 18.2388147,7.3800721 C18.3030897,7.47083359 18.3668586,7.56098182 18.4311336,7.65174331 C18.468079,7.70325658 18.5055306,7.75476986 18.5429822,7.80689638 C19.5675371,9.19952875 20.6903385,10.42194 21.9113864,11.0273307 C25.3591648,8.46478299 29.3165593,7.00780746 33.5247043,7.00780746 C37.6278257,7.00780746 41.4925565,8.39296637 44.8789331,10.8375398 C45.9664916,10.1870753 46.9736607,9.06662695 47.9004402,7.80689638 C47.9378918,7.75476986 47.9753433,7.70325658 48.0122888,7.65174331 C48.0765638,7.56098182 48.1403327,7.47083359 48.2046077,7.3800721 C49.052329,6.19158726 49.8307143,4.90559514 50.5341965,3.80725852 C50.5822763,3.7299886 50.630356,3.65885122 50.6784357,3.58771384 C50.7209483,3.52332225 50.7634609,3.46506319 50.8009124,3.40680413 C51.8778981,1.77248415 52.8055836,0.661269211 53.5738469,1.05497781 C54.9276706,1.74672751 55.0293971,4.18870206 54.4853372,7.03787678 C54.3679214,7.63886499 54.2241884,8.26560984 54.0586929,8.89235468 C54.0323756,9.01500534 53.994924,9.13765599 53.9630396,9.26030665 C53.6907566,10.2292468 53.3708999,11.2049328 53.0191588,12.1419838 C52.6618506,13.0912999 52.2777189,13.9829701 51.8885263,14.7844922 C51.8515808,14.8685079 51.8141292,14.9525236 51.7716166,15.0365393 C51.4414585,15.709323 51.1081266,16.312535 50.7833846,16.8208344 Z M36.4287671,56.1041294 C37.3489247,54.1385372 36.5588832,50.9635241 33.9799848,51.0190562 C31.4010865,51.0745883 30.6148332,52.8660061 30.5483439,55.1288584 C30.4818546,57.3917106 29.9571347,59.4299204 32.3231945,59.4299204 C34.7093226,59.4299204 35.5086094,58.0697216 36.4287671,56.1041294 Z" id="Combined-Shape" fill="#AFC1FF"></path>
                                        <path d="M48.0336865,30.5065894 C48.0336865,38.3709214 41.6245587,44.7483233 33.7141983,44.7483233 C29.5093218,44.7483233 25.7340961,42.9460911 23.1113934,40.0825612 C20.7997295,37.5500226 19.3891105,34.191018 19.3891105,30.5065894 C19.3891105,22.6422573 25.803838,16.2704225 33.7141983,16.2704225 C38.884262,16.2704225 43.4108676,18.9897131 45.9205578,23.0683959 C45.9261575,23.073963 45.9312482,23.0790241 45.9312482,23.0845912 C47.2665256,25.249193 48.0336865,27.7872988 48.0336865,30.5065894" id="Fill-18" fill="#FFFFFF"></path>
                                        <path d="M37.9380634,26.5060846 C37.9380634,30.4867241 34.6925607,33.7134545 30.688763,33.7134545 C26.6849653,33.7134545 23.4389571,30.4867241 23.4389571,26.5060846 C23.4389571,22.5254451 26.6849653,19.2987146 30.688763,19.2987146 C34.6925607,19.2987146 37.9380634,22.5254451 37.9380634,26.5060846" id="Fill-20" fill="#3C485D"></path>
                                    </g>
                                </g>
                            </g>
                        </g>
                    </g>
                </g>
            </g>
        </g>
    </g>
</svg>