<?xml version="1.0" encoding="UTF-8"?>
<svg width="120px" height="120px" viewBox="0 0 120 120" version="1.1" xmlns="http://www.w3.org/2000/svg" xmlns:xlink="http://www.w3.org/1999/xlink">
    <!-- Generator: Sketch 59 (86127) - https://sketch.com -->
    <title>tu</title>
    <desc>Created with Sketch.</desc>
    <defs>
        <linearGradient x1="38.1021111%" y1="96.8193132%" x2="41.6652568%" y2="0%" id="linearGradient-1">
            <stop stop-color="#EBEEF2" offset="0%"></stop>
            <stop stop-color="#D9E1EB" offset="100%"></stop>
        </linearGradient>
        <rect id="path-2" x="14" y="0" width="54" height="77" rx="2"></rect>
    </defs>
    <g id="邀请链接" stroke="none" stroke-width="1" fill="none" fill-rule="evenodd">
        <g id="画板备份" transform="translate(-92.000000, -95.000000)">
            <g id="设计图无标注备份" transform="translate(62.000000, 95.000000)">
                <g id="设计图无标注">
                    <g id="分组-3" transform="translate(30.000000, 0.000000)">
                        <g id="分组-2" transform="translate(20.000000, 17.000000)">
                            <mask id="mask-3" fill="white">
                                <use xlink:href="#path-2"></use>
                            </mask>
                            <use id="Mask" fill="url(#linearGradient-1)" xlink:href="#path-2"></use>
                            <circle id="椭圆形" fill="#EFF3F8" mask="url(#mask-3)" cx="51" cy="17" r="10"></circle>
                            <path d="M12,79.2455285 C29.7148935,48.1319974 51.0482269,30.798664 76,27.2455285 C76,46.3271617 76,63.660495 76,79.2455285 L12,79.2455285 Z" id="路径" fill="#FFFFFF" opacity="0.410853795" mask="url(#mask-3)"></path>
                            <path d="M10,77.2178862 C27.7148935,56.8744236 49.0482269,45.5410902 74,43.2178862 C74,55.6943387 74,67.027672 74,77.2178862 L10,77.2178862 Z" id="路径-copy" fill="#FFFFFF" opacity="0.334914435" mask="url(#mask-3)" transform="translate(42.000000, 60.217886) scale(-1, 1) translate(-42.000000, -60.217886) "></path>
                            <g id="分组" transform="translate(0.000000, 53.000000)">
                                <path d="M27.6468797,8.19116256 L29.3505682,8.5285418 C27.6316054,11.7435451 26.7097884,13.4475157 26.5851171,13.6404537 C26.3046069,14.0745642 26.5644344,14.8689375 26.6602163,15.2873248 C26.0549642,15.429925 26.2950152,14.513699 25.5290614,14.7061313 C24.8299344,14.8817745 24.2366853,15.3306374 23.585989,14.7275696 C23.5059897,14.6534259 23.4477072,14.4213704 23.7210533,14.3018705 C24.4020579,14.0041526 25.4083701,13.4471072 25.571742,13.2311994 C25.7945288,12.9367705 26.4862414,11.2567583 27.6468797,8.19116256 Z" id="Arm" fill="#F4BBAE" transform="translate(26.434984, 11.746816) scale(-1, -1) rotate(60.000000) translate(-26.434984, -11.746816) "></path>
                                <path d="M5.91337631,8.19116256 L7.61706485,8.5285418 C5.89810203,11.7435451 4.97628502,13.4475157 4.85161381,13.6404537 C4.57110359,14.0745642 4.83093107,14.8689375 4.92671292,15.2873248 C4.32146082,15.429925 4.56151185,14.513699 3.7955581,14.7061313 C3.09643105,14.8817745 2.50318191,15.3306374 1.85248566,14.7275696 C1.77248638,14.6534259 1.71420389,14.4213704 1.98754993,14.3018705 C2.66855459,14.0041526 3.67486672,13.4471072 3.83823864,13.2311994 C4.06102546,12.9367705 4.75273801,11.2567583 5.91337631,8.19116256 Z" id="Arm-Copy" fill="#F4BBAE" transform="translate(4.701480, 11.746816) scale(1, -1) rotate(60.000000) translate(-4.701480, -11.746816) "></path>
                                <polygon id="矩形" fill="#F3857F" points="14.9789916 4.55882353 16.9327731 4.55882353 17.3235294 8.20588235 14.5882353 8.20588235"></polygon>
                                <circle id="椭圆形" fill="#EFAC9D" cx="18.2352941" cy="3.64705882" r="1"></circle>
                                <circle id="椭圆形-copy-5" fill="#EFAC9D" cx="13.6764706" cy="3.64705882" r="1"></circle>
                                <path d="M15.9558824,6.38235294 C17.2147667,6.38235294 18.2352941,4.79570758 18.2352941,3.41384615 C18.2352941,2.03198473 17.2147667,0.911764706 15.9558824,0.911764706 C14.696998,0.911764706 13.6764706,2.03198473 13.6764706,3.41384615 C13.6764706,4.79570758 14.696998,6.38235294 15.9558824,6.38235294 Z" id="椭圆形" fill="#F4BBAE"></path>
                                <polygon id="路径-5" fill="#2E3478" points="12.8211152 19.1470588 19.7153368 19.1470588 20.0588235 35.5588235 18.5185872 35.5588235 15.9216227 21.6718761 14.0735172 27.8590988 15.9216227 34.8231339 14.6264796 35.5588235 10.9411765 27.8590988"></polygon>
                                <ellipse id="椭圆形" fill="#CED7E2" transform="translate(17.457255, 38.427843) scale(-1, 1) translate(-17.457255, -38.427843) " cx="17.4572549" cy="38.4278431" rx="10.6494118" ry="2.33411765"></ellipse>
                                <g id="Accessories/Shoe/Flat-Pointy" transform="translate(18.235294, 33.735294)" fill="#191847">
                                    <path d="M0,4 L0.0806451613,1.9 L1.77419355,1.9 C2.57722607,2.6 3.62561317,3.16666667 4.91935484,3.6 L4.91935484,4 L1.85483871,4 L0.806451613,3.8 L0.806451613,4 L0,4 Z" id="Shoe"></path>
                                </g>
                                <g id="Accessories/Shoe/Flat-Pointy" transform="translate(13.181598, 35.956202) scale(-1, 1) rotate(24.000000) translate(-13.181598, -35.956202) translate(10.331024, 34.003573)" fill="#191847">
                                    <path d="M0,4 L0.0967741935,1.9 L2.12903226,1.9 C3.09267128,2.6 4.3507358,3.16666667 5.90322581,3.6 L5.90322581,4 L2.22580645,4 L0.967741935,3.8 L0.967741935,4 L0,4 Z" id="Shoe"></path>
                                </g>
                                <path d="M14.1010985,6.8057278 C15.6336729,7.72475612 17.0403924,7.64891767 18.321257,6.57821245 C19.759504,5.37594745 20.304884,9.70867465 19.957397,19.576394 C19.9479451,19.845536 19.7270145,20.0588235 19.4577067,20.0588235 L12.3698114,20.0588235 C12.093669,20.0588235 11.8698114,19.8349659 11.8698114,19.5588235 C11.8698114,19.5389765 11.8709931,19.519147 11.8733503,19.4994404 L13.3474929,7.1751595 C13.3802843,6.90096797 13.629147,6.70527937 13.9033378,6.73807613 C13.9732879,6.74644305 14.0406803,6.76949723 14.1010985,6.8057278 Z" id="路径-6" fill="#FFFFFF"></path>
                                <path d="M14.5855027,6.94248464 C14.6184534,14.4768884 14.3534006,18.9104424 13.7903444,20.2431467 C13.2272881,21.575851 11.7745304,22.0959208 9.43207114,21.803356 L10.9473775,11.3469192 C9.85297626,12.570538 8.94478299,13.1823474 8.2227977,13.1823474 C7.50081241,13.1823474 5.67164455,12.7342928 2.73529412,11.8381835 L3.33825329,10.4534096 L8.2227977,10.4534096 C9.77351548,7.75643019 10.9148939,6.39974272 11.6469329,6.3833472 C12.3789719,6.36695168 13.3584952,6.55333082 14.5855027,6.94248464 Z" id="路径-7" fill="#4988FB"></path>
                                <path d="M28.2619733,6.94248464 C28.294924,14.4768884 28.0298712,18.9104424 27.4668149,20.2431467 C26.9037587,21.575851 25.451001,22.0959208 23.1085417,21.803356 L24.6238481,11.3469192 C23.5294468,12.570538 22.6212536,13.1823474 21.8992683,13.1823474 C21.177283,13.1823474 19.3481151,12.7342928 16.4117647,11.8381835 L17.0147239,10.4534096 L21.8992683,10.4534096 C23.4499861,7.75643019 24.5913645,6.39974272 25.3234035,6.3833472 C26.0554425,6.36695168 27.0349658,6.55333082 28.2619733,6.94248464 Z" id="路径-7-copy" fill="#4988FB" transform="translate(22.338235, 14.132353) scale(-1, 1) translate(-22.338235, -14.132353) "></path>
                                <path d="M17.0674935,1.21052824 C16.5010715,1.66816535 16.0996971,1.8969839 15.8633704,1.8969839 C15.5088803,1.8969839 14.7841258,1.67255917 14.5742727,1.8969839 C14.3644196,2.12140864 13.7948597,2.54934206 13.7948597,3.64705882 C13.5190205,2.12140864 13.7834389,1.5211001 13.9972159,1.21052824 C14.210993,0.899956378 14.9452808,0.182800703 15.4043256,0.0599156146 C15.8633704,-0.0629694738 16.7853796,-0.0448556164 17.0674935,0.582836313 C17.7708048,0.582836313 18.2352941,1.52488064 18.2352941,1.91065243 C18.2352941,2.16783363 18.2352941,2.74663576 18.2352941,3.64705882 C18.1640938,3.30003438 18.07707,3.03606391 17.9742226,2.85514743 C17.4167879,2.46402259 17.1145448,1.91581619 17.0674935,1.21052824 Z" id="路径-8" fill="#191847"></path>
                            </g>
                            <path d="M72.7212308,58.1177478 L72.7631948,58.1571553 L70.0967612,60.914051 L75.1638198,66.2420116 L74.4229815,66.9306545 C70.5067294,70.570989 66.4509212,73.487939 62.2553471,75.6788873 C57.9333764,77.9358405 52.4579657,78.5394806 45.8478462,77.521878 L43.9718849,77.2330809 L65.3614027,54.4447507 L65.3294936,54.4172056 L66.0787173,53.6563523 L73.1606905,46.4645344 C75.729571,43.9115457 78.0577012,43.2370347 79.8795438,44.8839116 C81.7128017,46.5411074 81.2596558,48.8247895 78.9414533,51.3592157 L72.7212308,58.1177478 Z" id="Combined-Shape" stroke="#FFFFFF" stroke-width="2" fill="#CACFD7" transform="translate(63.000000, 61.000000) rotate(2.000000) translate(-63.000000, -61.000000) "></path>
                        </g>
                    </g>
                </g>
            </g>
        </g>
    </g>
</svg>